<mxfile host="drawio-plugin" modified="2022-06-25T18:09:01.532Z" agent="5.0 (Macintosh; Intel Mac OS X 12_4_0) AppleWebKit/537.36 (KHTML, like Gecko) Chrome/89.0.4389.114 Safari/537.36" etag="sN7hi-W56HTwOs9RTnkO" version="15.5.4" type="embed"><diagram id="ZMzpceld19GLeM2Dk4Y2" name="UML"><mxGraphModel dx="1057" dy="813" grid="1" gridSize="10" guides="1" tooltips="1" connect="1" arrows="1" fold="1" page="1" pageScale="1" pageWidth="850" pageHeight="1100" math="0" shadow="0"><root><mxCell id="nOTi3l-tUUI1tV-FzPa4-0"/><mxCell id="nOTi3l-tUUI1tV-FzPa4-1" parent="nOTi3l-tUUI1tV-FzPa4-0"/><mxCell id="NjbtGmV7TC2rhCl2SDjO-0" value="High Level" style="shape=folder;fontStyle=1;spacingTop=5;tabWidth=90;tabHeight=35;tabPosition=left;html=1;align=left;labelPosition=center;verticalLabelPosition=middle;verticalAlign=top;textDirection=ltr;horizontal=1;spacingLeft=10;spacing=0;" parent="nOTi3l-tUUI1tV-FzPa4-1" vertex="1"><mxGeometry x="1360" y="310" width="500" height="830" as="geometry"/></mxCell><mxCell id="NjbtGmV7TC2rhCl2SDjO-1" value="Mid Level" style="shape=folder;fontStyle=1;spacingTop=5;tabWidth=90;tabHeight=35;tabPosition=left;html=1;align=left;labelPosition=center;verticalLabelPosition=middle;verticalAlign=top;textDirection=ltr;horizontal=1;spacingLeft=10;spacing=0;" parent="nOTi3l-tUUI1tV-FzPa4-1" vertex="1"><mxGeometry x="810" y="310" width="500" height="830" as="geometry"/></mxCell><mxCell id="NjbtGmV7TC2rhCl2SDjO-2" value="Low Level" style="shape=folder;fontStyle=1;spacingTop=5;tabWidth=90;tabHeight=35;tabPosition=left;html=1;align=left;labelPosition=center;verticalLabelPosition=middle;verticalAlign=top;textDirection=ltr;horizontal=1;spacingLeft=10;spacing=0;" parent="nOTi3l-tUUI1tV-FzPa4-1" vertex="1"><mxGeometry x="210" y="310" width="560" height="1200" as="geometry"/></mxCell><mxCell id="PeRnRUycARxAuWiASu6h-8" style="edgeStyle=orthogonalEdgeStyle;rounded=0;orthogonalLoop=1;jettySize=auto;html=1;endArrow=block;endFill=0;dashed=1;" parent="nOTi3l-tUUI1tV-FzPa4-1" source="NjbtGmV7TC2rhCl2SDjO-3" target="PeRnRUycARxAuWiASu6h-6" edge="1"><mxGeometry relative="1" as="geometry"/></mxCell><mxCell id="NjbtGmV7TC2rhCl2SDjO-3" value="&lt;p style=&quot;margin: 0px ; margin-top: 4px ; text-align: center&quot;&gt;&lt;b&gt;final HyperTextElement&lt;/b&gt;&lt;/p&gt;&lt;hr size=&quot;1&quot;&gt;&lt;p style=&quot;margin: 0px ; margin-left: 4px&quot;&gt;&lt;span&gt;- final tag: tag&lt;/span&gt;&lt;br&gt;&lt;/p&gt;&lt;p style=&quot;margin: 0px ; margin-left: 4px&quot;&gt;- final attributeMap: Map&amp;lt;Attribute, String&amp;gt;&lt;/p&gt;&lt;hr size=&quot;1&quot;&gt;&lt;p style=&quot;margin: 0px ; margin-left: 4px&quot;&gt;+ HyperTextElement(Tag)&lt;/p&gt;&lt;p style=&quot;margin: 0px ; margin-left: 4px&quot;&gt;&lt;span&gt;+ addAttribute(Attribute, String): void&lt;/span&gt;&lt;br&gt;&lt;/p&gt;&lt;p style=&quot;margin: 0px ; margin-left: 4px&quot;&gt;&lt;span&gt;+ addBootstrap(Bootstrap...): void&lt;/span&gt;&lt;br&gt;&lt;/p&gt;&lt;p style=&quot;margin: 0px ; margin-left: 4px&quot;&gt;+ addStyle(Style...): void&lt;/p&gt;&lt;p style=&quot;margin: 0px ; margin-left: 4px&quot;&gt;+ getTag(): String&lt;/p&gt;&lt;p style=&quot;margin: 0px ; margin-left: 4px&quot;&gt;+ getAttributeList: Map&amp;lt;Attribute, String&amp;gt;&lt;/p&gt;" style="verticalAlign=top;align=left;overflow=fill;fontSize=12;fontFamily=Helvetica;html=1;" parent="nOTi3l-tUUI1tV-FzPa4-1" vertex="1"><mxGeometry x="360" y="1130" width="320" height="180" as="geometry"/></mxCell><mxCell id="PeRnRUycARxAuWiASu6h-7" style="edgeStyle=orthogonalEdgeStyle;rounded=0;orthogonalLoop=1;jettySize=auto;html=1;endArrow=open;endFill=0;" parent="nOTi3l-tUUI1tV-FzPa4-1" source="NjbtGmV7TC2rhCl2SDjO-5" target="PeRnRUycARxAuWiASu6h-6" edge="1"><mxGeometry relative="1" as="geometry"/></mxCell><mxCell id="NjbtGmV7TC2rhCl2SDjO-5" value="&lt;p style=&quot;margin: 0px ; margin-top: 4px ; text-align: center&quot;&gt;&lt;i&gt;&amp;lt;&amp;lt;abstract&amp;gt;&amp;gt;&lt;/i&gt;&lt;br&gt;&lt;b&gt;HyperTextBehavior&lt;/b&gt;&lt;/p&gt;&lt;hr size=&quot;1&quot;&gt;&lt;p style=&quot;margin: 0px ; margin-left: 4px&quot;&gt;- children: List&amp;lt;HyperTextBehavior&amp;gt;&lt;br&gt;&lt;/p&gt;&lt;p style=&quot;margin: 0px ; margin-left: 4px&quot;&gt;- content: Element&lt;/p&gt;&lt;p style=&quot;margin: 0px ; margin-left: 4px&quot;&gt;- id: String&lt;/p&gt;&lt;p style=&quot;margin: 0px ; margin-left: 4px&quot;&gt;- cache: String&lt;/p&gt;&lt;hr size=&quot;1&quot;&gt;&lt;p style=&quot;margin: 0px ; margin-left: 4px&quot;&gt;+ HyperTextBehavior(Element)&lt;/p&gt;&lt;p style=&quot;margin: 0px ; margin-left: 4px&quot;&gt;+ final onMessage(String id, Map&amp;lt;String, String&amp;gt;): void&lt;br&gt;+ abstract onInteract(Map&amp;lt;String, String&amp;gt;): void&lt;/p&gt;&lt;p style=&quot;margin: 0px ; margin-left: 4px&quot;&gt;+ final add(HyperTextBehavior): void&lt;/p&gt;&lt;p style=&quot;margin: 0px ; margin-left: 4px&quot;&gt;+ final build(): String&lt;/p&gt;&lt;p style=&quot;margin: 0px ; margin-left: 4px&quot;&gt;&lt;br&gt;&lt;/p&gt;&lt;p style=&quot;margin: 0px ; margin-left: 4px&quot;&gt;&lt;br&gt;&lt;/p&gt;" style="verticalAlign=top;align=left;overflow=fill;fontSize=12;fontFamily=Helvetica;html=1;" parent="nOTi3l-tUUI1tV-FzPa4-1" vertex="1"><mxGeometry x="360" y="670" width="320" height="200" as="geometry"/></mxCell><mxCell id="NjbtGmV7TC2rhCl2SDjO-6" style="edgeStyle=orthogonalEdgeStyle;rounded=0;orthogonalLoop=1;jettySize=auto;html=1;endArrow=block;endFill=0;jumpSize=6;strokeWidth=1;" parent="nOTi3l-tUUI1tV-FzPa4-1" source="NjbtGmV7TC2rhCl2SDjO-7" target="NjbtGmV7TC2rhCl2SDjO-5" edge="1"><mxGeometry relative="1" as="geometry"><Array as="points"><mxPoint x="870" y="490"/><mxPoint x="870" y="770"/></Array></mxGeometry></mxCell><mxCell id="NjbtGmV7TC2rhCl2SDjO-7" value="&lt;p style=&quot;margin: 0px ; margin-top: 4px ; text-align: center&quot;&gt;&lt;b&gt;Component&lt;/b&gt;&lt;/p&gt;&lt;hr size=&quot;1&quot;&gt;&lt;p style=&quot;margin: 0px ; margin-left: 4px&quot;&gt;&lt;br&gt;&lt;/p&gt;&lt;hr size=&quot;1&quot;&gt;&lt;p style=&quot;margin: 0px ; margin-left: 4px&quot;&gt;&lt;br&gt;&lt;/p&gt;" style="verticalAlign=top;align=left;overflow=fill;fontSize=12;fontFamily=Helvetica;html=1;" parent="nOTi3l-tUUI1tV-FzPa4-1" vertex="1"><mxGeometry x="930" y="390" width="280" height="200" as="geometry"/></mxCell><mxCell id="NjbtGmV7TC2rhCl2SDjO-8" style="edgeStyle=orthogonalEdgeStyle;rounded=0;jumpSize=6;orthogonalLoop=1;jettySize=auto;html=1;endArrow=open;endFill=0;strokeWidth=1;dashed=1;" parent="nOTi3l-tUUI1tV-FzPa4-1" source="NjbtGmV7TC2rhCl2SDjO-9" target="NjbtGmV7TC2rhCl2SDjO-5" edge="1"><mxGeometry relative="1" as="geometry"/></mxCell><mxCell id="NjbtGmV7TC2rhCl2SDjO-9" value="&lt;p style=&quot;margin: 0px ; margin-top: 4px ; text-align: center&quot;&gt;&lt;i&gt;&amp;lt;&amp;lt;abstract&amp;gt;&amp;gt;&lt;/i&gt;&lt;br&gt;&lt;b&gt;WebJApplication&lt;/b&gt;&lt;/p&gt;&lt;hr size=&quot;1&quot;&gt;&lt;p style=&quot;margin: 0px ; margin-left: 4px&quot;&gt;&lt;br&gt;&lt;/p&gt;&lt;hr size=&quot;1&quot;&gt;&lt;p style=&quot;margin: 0px ; margin-left: 4px&quot;&gt;+ final start(int wsPort, int httpPort, String title): void&lt;/p&gt;&lt;p style=&quot;margin: 0px ; margin-left: 4px&quot;&gt;+ abstract build(): HtmlBehavior&lt;/p&gt;" style="verticalAlign=top;align=left;overflow=fill;fontSize=12;fontFamily=Helvetica;html=1;" parent="nOTi3l-tUUI1tV-FzPa4-1" vertex="1"><mxGeometry x="360" y="410" width="320" height="180" as="geometry"/></mxCell><mxCell id="NjbtGmV7TC2rhCl2SDjO-10" style="edgeStyle=orthogonalEdgeStyle;rounded=0;jumpSize=6;orthogonalLoop=1;jettySize=auto;html=1;endArrow=block;endFill=0;strokeWidth=1;" parent="nOTi3l-tUUI1tV-FzPa4-1" source="NjbtGmV7TC2rhCl2SDjO-12" target="NjbtGmV7TC2rhCl2SDjO-9" edge="1"><mxGeometry relative="1" as="geometry"><Array as="points"><mxPoint x="1600" y="280"/><mxPoint x="520" y="280"/></Array></mxGeometry></mxCell><mxCell id="NjbtGmV7TC2rhCl2SDjO-11" style="edgeStyle=orthogonalEdgeStyle;rounded=0;jumpSize=6;orthogonalLoop=1;jettySize=auto;html=1;endArrow=open;endFill=0;strokeWidth=1;" parent="nOTi3l-tUUI1tV-FzPa4-1" source="NjbtGmV7TC2rhCl2SDjO-12" target="NjbtGmV7TC2rhCl2SDjO-7" edge="1"><mxGeometry relative="1" as="geometry"/></mxCell><mxCell id="NjbtGmV7TC2rhCl2SDjO-12" value="&lt;p style=&quot;margin: 0px ; margin-top: 4px ; text-align: center&quot;&gt;&lt;b&gt;CustomApplication&lt;/b&gt;&lt;/p&gt;&lt;hr size=&quot;1&quot;&gt;&lt;p style=&quot;margin: 0px ; margin-left: 4px&quot;&gt;&lt;br&gt;&lt;/p&gt;&lt;hr size=&quot;1&quot;&gt;&lt;p style=&quot;margin: 0px ; margin-left: 4px&quot;&gt;&lt;br&gt;&lt;/p&gt;" style="verticalAlign=top;align=left;overflow=fill;fontSize=12;fontFamily=Helvetica;html=1;" parent="nOTi3l-tUUI1tV-FzPa4-1" vertex="1"><mxGeometry x="1480" y="390" width="280" height="200" as="geometry"/></mxCell><mxCell id="PeRnRUycARxAuWiASu6h-6" value="&lt;p style=&quot;margin: 0px ; margin-top: 4px ; text-align: center&quot;&gt;&lt;i&gt;&amp;lt;&amp;lt;Interface&amp;gt;&amp;gt;&lt;/i&gt;&lt;br&gt;&lt;b&gt;Element&lt;/b&gt;&lt;/p&gt;&lt;hr size=&quot;1&quot;&gt;&lt;p style=&quot;margin: 0px ; margin-left: 4px&quot;&gt;&lt;br&gt;&lt;/p&gt;&lt;hr size=&quot;1&quot;&gt;&lt;p style=&quot;margin: 0px ; margin-left: 4px&quot;&gt;&lt;br&gt;&lt;/p&gt;" style="verticalAlign=top;align=left;overflow=fill;fontSize=12;fontFamily=Helvetica;html=1;" parent="nOTi3l-tUUI1tV-FzPa4-1" vertex="1"><mxGeometry x="360" y="950" width="320" height="90" as="geometry"/></mxCell><mxCell id="PeRnRUycARxAuWiASu6h-12" style="edgeStyle=orthogonalEdgeStyle;rounded=0;orthogonalLoop=1;jettySize=auto;html=1;dashed=1;endArrow=block;endFill=0;" parent="nOTi3l-tUUI1tV-FzPa4-1" source="PeRnRUycARxAuWiASu6h-10" target="PeRnRUycARxAuWiASu6h-6" edge="1"><mxGeometry relative="1" as="geometry"><Array as="points"><mxPoint x="290" y="1415"/><mxPoint x="290" y="995"/></Array></mxGeometry></mxCell><mxCell id="PeRnRUycARxAuWiASu6h-10" value="&lt;p style=&quot;margin: 0px ; margin-top: 4px ; text-align: center&quot;&gt;&lt;b&gt;TextElement&lt;/b&gt;&lt;/p&gt;&lt;hr size=&quot;1&quot;&gt;&lt;p style=&quot;margin: 0px ; margin-left: 4px&quot;&gt;+ text: String&lt;/p&gt;&lt;hr size=&quot;1&quot;&gt;&lt;p style=&quot;margin: 0px ; margin-left: 4px&quot;&gt;+ setText(String: void&lt;/p&gt;" style="verticalAlign=top;align=left;overflow=fill;fontSize=12;fontFamily=Helvetica;html=1;" parent="nOTi3l-tUUI1tV-FzPa4-1" vertex="1"><mxGeometry x="360" y="1370" width="320" height="90" as="geometry"/></mxCell></root></mxGraphModel></diagram></mxfile>